<svg width="30" height="64" viewBox="0 0 30 64" fill="none" xmlns="http://www.w3.org/2000/svg">
<path d="M25.8712 54.3991L24.841 55.9519H26.7045H27.4391C27.7837 55.9519 28.0908 56.2193 28.0908 56.6754V58.6142C28.0908 58.9864 27.8224 59.2857 27.4605 59.3303L26.5828 59.4385V60.3228V63H3.16206V60.3228V59.4385L2.28439 59.3303C1.92252 59.2857 1.65405 58.9865 1.65405 58.6142V56.6754C1.65405 56.3278 1.99633 55.9519 2.44923 55.9519H3.18406H5.04761L4.01734 54.3991C3.58181 53.7426 2.61969 51.8977 4.11214 50.0693L3.34174 49.4404L4.11215 50.0693C5.13513 48.8159 6.53437 46.6061 7.66184 44.0277C8.78648 41.4558 9.68386 38.4198 9.6039 35.5355L9.57695 34.5632H8.60429H7.83499C7.38209 34.5632 7.03981 34.1873 7.03981 33.8398V33.6243C7.03981 33.2768 7.38209 32.9009 7.83499 32.9009H8.8404H9.8404V31.9009V31.131V30.6037L9.40535 30.3058C6.87535 28.5736 5.27802 25.6777 5.27802 22.3791C5.27802 21.5531 5.54283 20.4412 6.04834 19.1076C6.54742 17.791 7.25202 16.3324 8.06504 14.8368C9.69073 11.8463 11.711 8.77841 13.2741 6.51705L13.7441 5.83701L13.1646 5.24746C12.7196 4.79474 12.4471 4.17863 12.4471 3.49708C12.4471 2.11803 13.5649 1 14.9444 1C16.3237 1 17.4412 2.11787 17.441 3.49697V3.49708C17.441 4.17875 17.1684 4.79482 16.7235 5.24734L16.1437 5.83694L16.6139 6.51711C17.3104 7.52452 18.0973 8.69494 18.8996 9.94909L14.7964 14.052L14.7963 14.052C13.7373 15.111 13.7336 16.8393 14.7928 17.901C14.7937 17.9018 14.7945 17.9027 14.7954 17.9035L14.9891 18.0998L14.9891 18.0998L14.9939 18.1046C16.0547 19.1648 17.7802 19.1649 18.841 18.1042L18.8417 18.1034L21.8966 15.0416C22.5702 16.3029 23.163 17.5376 23.6168 18.6806C24.2173 20.1929 24.5386 21.4577 24.5386 22.3791C24.5386 25.5983 23.0721 28.4156 20.552 30.1547L20.1199 30.4529V30.9778V31.9009V32.9009H21.1199H22.0534C22.3979 32.9009 22.7051 33.1682 22.7051 33.6243V33.8398C22.7051 34.2959 22.3979 34.5632 22.0534 34.5632H21.2843H20.3116L20.2847 35.5355C20.2047 38.4197 21.1022 41.4557 22.2268 44.0276C23.3543 46.6061 24.7535 48.8159 25.7764 50.0692L25.7765 50.0693C27.2691 51.8977 26.3068 53.7425 25.8712 54.3991Z" fill="white" stroke="black" stroke-width="2"/>
</svg>
