<svg width="25" height="64" viewBox="0 0 25 64" fill="none" xmlns="http://www.w3.org/2000/svg">
<path d="M21.298 54.4894L20.4592 55.9799H22.1694H22.5219C22.8634 55.9799 23.1685 56.2447 23.1687 56.698C23.1687 56.6981 23.1687 56.6981 23.1687 56.6982V58.6309C23.1687 58.8541 23.1095 59.0046 23.0414 59.097C22.9798 59.1807 22.8735 59.2696 22.6631 59.3163L21.8801 59.4904V60.2925V63H2.40358V60.2925V59.5456L1.68741 59.3336C1.5708 59.2991 1.41315 59.2037 1.28761 59.0522C1.16627 58.9058 1.11499 58.7571 1.11499 58.6309V56.698C1.11499 56.3534 1.45467 55.9799 1.90463 55.9799H2.27209H3.98236L3.14356 54.4894C2.77934 53.8422 1.92705 51.9232 3.22383 50.0513L3.22385 50.0513C4.08986 48.8011 5.2712 46.601 6.22192 44.0377C7.17142 41.4776 7.9224 38.4717 7.85511 35.6274L7.83202 34.651H6.85539H6.62925C6.17928 34.651 5.83961 34.2775 5.83961 33.9329V33.7181C5.83961 33.3216 6.16118 33 6.55773 33V32V31C6.16118 31 5.83961 30.6784 5.83961 30.2819V30.0671C5.83961 29.7225 6.17928 29.349 6.62925 29.349H7.60643H8.54605L8.60449 28.4112C8.82876 24.8126 8.31362 21.7413 7.52802 19.2969L7.528 19.2968C7.26351 18.4741 6.94757 17.8173 6.61579 17.2917L6.32149 16.8255H5.77018H5.12589C4.67593 16.8255 4.33625 16.452 4.33625 16.1074V15.8926C4.33625 15.548 4.67593 15.1745 5.12589 15.1745H5.29319H6.14447L6.28037 14.3341C6.66384 11.9629 8.47583 10.0488 10.6774 9.47086L11.4235 9.275V8.50362V5.79866V4.79866H10.4235H8.84632V3.57718H10.4235H11.4235V2.57718V1H12.645V2.57718V3.57718H13.645H15.2222V4.79866H13.645H12.645V5.79866V8.4538V9.25892L13.4315 9.43076C15.8241 9.95344 17.6818 11.9003 18.0745 14.3363L18.2064 15.1541L19.0344 15.1767C19.4225 15.1873 19.732 15.5045 19.732 15.8926V16.1074C19.732 16.5606 19.427 16.8255 19.0854 16.8255H18.6559H18.1047L17.8104 17.2915C17.4784 17.8171 17.1625 18.4743 16.8981 19.2968L16.898 19.2969C16.1124 21.7415 15.5973 24.8126 15.8216 28.4112L15.88 29.349H16.8196H17.5821C17.9236 29.349 18.2287 29.6139 18.2287 30.0671V30.2819C18.2287 30.6784 17.9071 31 17.5105 31V32V33C17.9071 33 18.2287 33.3216 18.2287 33.7181V33.9329C18.2287 34.3562 17.9165 34.65 17.5478 34.6508L16.5733 34.653L16.5503 35.6272C16.4831 38.4734 17.2441 41.4806 18.2026 44.0404C19.1627 46.6043 20.3528 48.8031 21.2175 50.0513L21.2175 50.0514C22.5147 51.9235 21.6622 53.8422 21.298 54.4894Z" fill="#5B5B5B" stroke="black" stroke-width="2"/>
</svg>
