<svg width="133" height="135" viewBox="0 0 133 135" fill="none" xmlns="http://www.w3.org/2000/svg">
<path d="M20.2954 46.9125C20.7088 46.9125 21.1052 46.7458 21.3975 46.4491C21.6898 46.1524 21.854 45.75 21.854 45.3305V44.1149C21.854 43.6953 21.6898 43.293 21.3975 42.9963C21.1052 42.6996 20.7088 42.5329 20.2954 42.5329C19.882 42.5329 19.4856 42.6996 19.1933 42.9963C18.901 43.293 18.7368 43.6953 18.7368 44.1149V45.3305C18.7368 45.75 18.901 46.1524 19.1933 46.4491C19.4856 46.7458 19.882 46.9125 20.2954 46.9125Z" fill="#4C6E87"/>
<path d="M20.2954 63.9642C20.7088 63.9642 21.1052 63.7975 21.3975 63.5008C21.6898 63.2041 21.854 62.8017 21.854 62.3821V50.1214C21.854 49.7018 21.6898 49.2994 21.3975 49.0027C21.1052 48.706 20.7088 48.5394 20.2954 48.5394C19.882 48.5394 19.4856 48.706 19.1933 49.0027C18.901 49.2994 18.7368 49.7018 18.7368 50.1214V62.3821C18.7368 62.8017 18.901 63.2041 19.1933 63.5008C19.4856 63.7975 19.882 63.9642 20.2954 63.9642Z" fill="#4C6E87"/>
<path d="M119.583 30.5891L67.1964 4.03732C66.9801 3.92768 66.7417 3.87061 66.5 3.87061C66.2582 3.87061 66.0198 3.92768 65.8035 4.03732L13.4166 30.5891C13.1575 30.7204 12.9397 30.9224 12.7874 31.1724C12.6351 31.4224 12.5544 31.7105 12.5544 32.0045V102.995C12.5544 103.289 12.6351 103.578 12.7874 103.828C12.9397 104.078 13.1575 104.28 13.4166 104.411L65.8035 130.963C66.0198 131.072 66.2582 131.129 66.5 131.129C66.7417 131.129 66.9801 131.072 67.1964 130.963L119.583 104.411C119.842 104.28 120.06 104.078 120.213 103.828C120.365 103.578 120.446 103.289 120.446 102.995V32.0045C120.446 31.7105 120.365 31.4224 120.213 31.1724C120.06 30.9224 119.842 30.7204 119.583 30.5891ZM115.398 32.0045L94.305 42.6961L67.9596 29.3419L89.0526 18.6513L115.398 32.0045ZM66.5 7.22116L85.5634 16.8832L64.4704 27.5735L45.4091 17.9109L66.5 7.22116ZM35.2346 111.932L15.6716 102.018V70.0576L35.2346 79.9738V111.932ZM35.2346 76.4379L15.6716 66.5218V34.5626L35.2346 44.4788V76.4379ZM17.6019 32.0045L41.9202 19.6791L60.982 29.3419L36.6643 41.667L17.6019 32.0045ZM64.9414 126.989L38.3518 113.512V81.5537L64.9414 95.0326V126.989ZM66.5 56.7904L54.6651 50.7916C54.4819 50.6988 54.2826 50.6435 54.0784 50.6289C53.8743 50.6143 53.6692 50.6406 53.4751 50.7064C53.281 50.7722 53.1015 50.8762 52.9469 51.0124C52.7924 51.1486 52.6658 51.3144 52.5743 51.5002C52.4829 51.6861 52.4284 51.8884 52.414 52.0957C52.3996 52.3029 52.4256 52.511 52.4904 52.7081C52.5552 52.9051 52.6576 53.0873 52.7918 53.2442C52.926 53.4011 53.0893 53.5296 53.2724 53.6224L64.9414 59.5371V91.496L38.3518 78.0181V46.059L46.2814 50.0784C46.4645 50.1712 46.6638 50.2265 46.868 50.2411C47.0722 50.2557 47.2772 50.2294 47.4713 50.1636C47.6655 50.0978 47.8449 49.9938 47.9995 49.8576C48.154 49.7214 48.2807 49.5556 48.3721 49.3698C48.4635 49.1839 48.518 48.9816 48.5324 48.7743C48.5468 48.5671 48.5209 48.359 48.456 48.1619C48.3912 47.9649 48.2888 47.7827 48.1546 47.6258C48.0204 47.4689 47.8571 47.3404 47.674 47.2476L40.153 43.4354L64.4707 31.1104L90.8156 44.4651L66.5 56.7904ZM92.9 46.9454V78.9041L68.0586 91.496V59.5371L92.9 46.9454ZM117.328 102.017L96.0171 112.819V105.469C96.0171 105.049 95.8529 104.647 95.5606 104.35C95.2683 104.053 94.8719 103.887 94.4585 103.887C94.0452 103.887 93.6488 104.053 93.3565 104.35C93.0642 104.647 92.9 105.049 92.9 105.469V114.399L68.0586 126.989V95.0326L92.9 82.4409V97.5137C92.9 97.9333 93.0642 98.3357 93.3565 98.6324C93.6488 98.9291 94.0452 99.0958 94.4585 99.0958C94.8719 99.0958 95.2683 98.9291 95.5606 98.6324C95.8529 98.3357 96.0171 97.9333 96.0171 97.5137V80.8608L117.328 70.0576V102.017ZM117.328 66.5215L96.0171 77.3241V45.3653L117.328 34.5629V66.5215Z" fill="#4C6E87"/>
</svg>
