<svg width="331" height="50" viewBox="0 0 331 50" fill="none" xmlns="http://www.w3.org/2000/svg">
<path fill-rule="evenodd" clip-rule="evenodd" d="M13.6059 31.28H15.5739L22.5819 44H31.846L24.07 30.656C25.8507 30.1241 27.3139 29.3247 28.4595 28.258C28.8991 27.8487 29.2919 27.4 29.638 26.912C30.6447 25.5277 31.2555 23.995 31.4704 22.3138C31.5288 21.8575 31.558 21.3902 31.558 20.912C31.558 20.4146 31.5288 19.9292 31.4704 19.4559C31.2961 18.0415 30.8613 16.7349 30.1659 15.536C29.2379 13.904 27.83 12.624 25.9419 11.696C24.0859 10.768 21.8299 10.304 19.174 10.304H5.39795V44H13.6059V31.28ZM22.0539 18.224C21.3179 17.488 20.198 17.12 18.694 17.12H13.6059V25.472H18.694C20.198 25.472 21.3179 25.104 22.0539 24.368C22.8219 23.632 23.2059 22.592 23.2059 21.248C23.2059 19.968 22.8219 18.96 22.0539 18.224ZM28.1626 7.21617C25.4495 5.8633 22.3894 5.304 19.174 5.304H0.397949V49H18.6059V47.1448L19.628 49H40.5466L39.8193 47.7519C42.0023 48.8085 44.3761 49.288 46.8384 49.288C47.8939 49.288 48.9339 49.1935 49.9505 48.9975V49H81.8316C83.0307 49.263 84.2657 49.384 85.5182 49.384C88.6192 49.384 91.5449 48.5835 94.1682 46.944L94.1952 46.9271L94.222 46.9099C95.0948 46.3488 95.898 45.7156 96.6323 45.0164V49H128.997V48.1572L129.609 49H153.077L137.615 30.6308L139.655 28.168H153.686L154.978 25.0755C154.978 25.0957 154.978 25.1158 154.978 25.136C154.978 26.8611 155.267 28.6021 155.978 30.216H153.73L154.128 35.5854C154.328 38.2823 155.27 40.7602 156.89 42.92L156.907 42.9421L156.924 42.9641C158.564 45.102 160.722 46.6752 163.202 47.7629C165.759 48.8844 168.541 49.384 171.45 49.384C174.152 49.384 176.75 48.9481 179.127 47.9259C181.453 46.9388 183.522 45.4614 185.023 43.3541C186.538 41.24 187.298 38.8111 187.298 36.224V36.1809L187.297 36.1378C187.267 34.3684 186.937 32.5886 186.168 30.952H187.705L187.127 25.4316C186.718 21.5205 185.053 18.1007 182.054 15.5366C178.968 12.87 175.037 11.832 170.874 11.832C168.074 11.832 165.386 12.2847 162.948 13.3633L162.931 13.3706L162.915 13.3781C161.329 14.093 159.886 15.0409 158.666 16.2509L163.241 5.304H143.209L141.868 12.216H129.598L128.997 13.0232V3.48H112.929C112.829 3.38033 112.727 3.28231 112.621 3.18599C110.68 1.34791 108.251 0.552002 105.76 0.552002C103.243 0.552002 100.785 1.34357 98.8061 3.18404C96.8386 5.01094 95.8643 7.41909 95.8643 10.016C95.8643 11.3477 96.1256 12.6152 96.6323 13.7779V16.1727C95.8835 15.4669 95.0625 14.831 94.1682 14.272C91.545 12.6325 88.6192 11.832 85.5182 11.832C84.4132 11.832 83.3244 11.9316 82.2622 12.1415V3.48H64.0542V12.216H49.9505V31.76C49.9505 32.073 49.9233 32.2865 49.8964 32.4206C49.8589 32.4227 49.8157 32.424 49.7664 32.424C49.7367 32.424 49.7096 32.4235 49.6849 32.4225C49.6579 32.2885 49.6305 32.0745 49.6305 31.76V12.216H33.9888C32.5343 10.0382 30.5321 8.38367 28.1626 7.21617ZM36.4705 32.864C36.4705 35.2 36.9024 37.232 37.7664 38.96C38.6304 40.688 39.8464 42.016 41.4144 42.944C42.9824 43.84 44.7904 44.288 46.8384 44.288C47.9409 44.288 48.9782 44.1447 49.9505 43.8582C50.5021 43.6956 51.0327 43.4869 51.5424 43.232C52.3936 42.797 53.1385 42.2837 53.7772 41.6922C54.2191 41.2829 54.6102 40.8362 54.9505 40.352V44H63.1585V17.216H54.9505V31.76C54.9505 33.552 54.4865 34.944 53.5584 35.936C52.877 36.6644 52.0145 37.1254 50.9708 37.3189C50.593 37.389 50.1916 37.424 49.7664 37.424C48.1984 37.424 46.9505 36.928 46.0224 35.936C45.0944 34.944 44.6305 33.552 44.6305 31.76V17.216H36.4705V32.864ZM31.4704 32.2732V32.864C31.4704 33.0555 31.4728 33.2464 31.4774 33.4368L31.0175 32.6475C31.1709 32.526 31.3219 32.4012 31.4704 32.2732ZM50.0991 32.3935C50.0991 32.3935 50.0985 32.3938 50.0972 32.3941ZM82.2622 17.288C81.6709 17.4672 81.1083 17.6992 80.5742 17.984C79.3664 18.6282 78.3949 19.4412 77.6599 20.4231C77.5186 20.6118 77.386 20.8068 77.2622 21.008V8.48H69.0542V44H77.2622V40.256C77.3746 40.4314 77.4931 40.6021 77.6176 40.768C78.3786 41.7826 79.3641 42.62 80.5742 43.28C81.103 43.5564 81.6657 43.7809 82.2622 43.9536C83.254 44.2405 84.3393 44.384 85.5182 44.384C87.7262 44.384 89.7262 43.824 91.5182 42.704C93.3102 41.552 94.7182 39.936 95.7422 37.856C96.0993 37.1418 96.396 36.3911 96.6323 35.6038C97.0949 34.0627 97.3262 32.3814 97.3262 30.56C97.3262 28.7386 97.0949 27.0643 96.6323 25.5373C96.396 24.7571 96.0993 24.0153 95.7422 23.312C94.7182 21.232 93.3102 19.632 91.5182 18.512C89.7262 17.392 87.7262 16.832 85.5182 16.832C84.3505 16.832 83.2652 16.984 82.2622 17.288ZM101.632 44H109.84V17.216H101.632V44ZM110.014 12.216C110.41 11.5646 110.608 10.8313 110.608 10.016C110.608 8.736 110.144 7.68 109.216 6.848C108.32 5.984 107.168 5.552 105.76 5.552C104.32 5.552 103.136 5.984 102.208 6.848C101.312 7.68 100.864 8.736 100.864 10.016C100.864 10.8313 101.056 11.5646 101.438 12.216C101.498 12.3184 101.563 12.4187 101.632 12.5171C101.798 12.7508 101.99 12.9731 102.208 13.184C103.136 14.016 104.32 14.432 105.76 14.432C107.168 14.432 108.32 14.016 109.216 13.184C109.455 12.9618 109.663 12.7268 109.84 12.4792C109.902 12.393 109.96 12.3053 110.014 12.216ZM81.1001 24.3117C80.2867 24.6018 79.5514 25.0846 78.8942 25.76C77.7742 26.944 77.2142 28.56 77.2142 30.608C77.2142 30.6141 77.2142 30.6201 77.2142 30.6262C77.2144 30.7262 77.2159 30.8252 77.2187 30.9232C77.2738 32.8225 77.8323 34.3334 78.8942 35.456C79.5347 36.1143 80.2495 36.5897 81.0384 36.8819C81.6684 37.1153 82.3456 37.232 83.0702 37.232C84.7022 37.232 86.0942 36.64 87.2462 35.456C88.3982 34.24 88.9742 32.608 88.9742 30.56C88.9742 28.512 88.3982 26.912 87.2462 25.76C86.1262 24.576 84.7342 23.984 83.0702 23.984C82.3692 23.984 81.7125 24.0932 81.1001 24.3117ZM83.6373 31.9948C83.7389 31.8812 83.9742 31.5533 83.9742 30.56C83.9742 29.9988 83.8948 29.6761 83.8378 29.5176C83.7879 29.379 83.7433 29.3282 83.7107 29.2955L83.6616 29.2464L83.6139 29.196C83.4901 29.0652 83.4219 29.0362 83.4057 29.0293C83.3879 29.0217 83.2974 28.984 83.0702 28.984C82.873 28.984 82.7887 29.0166 82.759 29.0292C82.73 29.0415 82.6451 29.0812 82.5056 29.2188C82.4322 29.3046 82.2142 29.6277 82.2142 30.608C82.2142 31.5883 82.4322 31.9114 82.5056 31.9972C82.6451 32.1348 82.73 32.1745 82.759 32.1868C82.7887 32.1994 82.873 32.232 83.0702 32.232C83.2674 32.232 83.3517 32.1994 83.3814 32.1868C83.4106 32.1744 83.4963 32.1343 83.6373 31.9948ZM123.997 28.112V8.48H115.789V44H123.997V32.768L132.157 44H142.333L131.101 30.656L142.237 17.216H132.109L123.997 28.112ZM144.836 23.168H150.356L155.732 10.304H147.332L144.836 23.168ZM178.794 19.328C176.874 17.664 174.234 16.832 170.874 16.832C168.602 16.832 166.634 17.2 164.97 17.936C163.338 18.672 162.09 19.68 161.226 20.96C160.394 22.208 159.978 23.6 159.978 25.136C159.978 26.96 160.442 28.416 161.37 29.504C161.592 29.7569 161.825 29.9943 162.067 30.216C162.837 30.92 163.709 31.4666 164.682 31.856C165.423 32.1338 166.271 32.4063 167.226 32.6733C167.921 32.8677 168.673 33.0593 169.482 33.248C169.994 33.3761 170.466 33.5015 170.897 33.6243C171.042 33.6654 171.181 33.7062 171.316 33.7467C171.329 33.7505 171.342 33.7543 171.354 33.7581C171.556 33.819 171.748 33.8792 171.93 33.9388C171.997 33.9609 172.063 33.9828 172.128 34.0047C172.626 34.1739 173.04 34.3377 173.37 34.496C174.17 34.848 174.57 35.408 174.57 36.176C174.57 36.816 174.282 37.344 173.706 37.76C173.222 38.1017 172.548 38.2914 171.684 38.329C171.632 38.3313 171.58 38.333 171.528 38.3341C171.471 38.3354 171.413 38.336 171.354 38.336C170.992 38.336 170.648 38.3059 170.323 38.2456C169.642 38.1195 169.042 37.8617 168.522 37.472C168.515 37.4665 168.508 37.4611 168.5 37.4556C168.481 37.4405 168.461 37.4253 168.442 37.41C167.724 36.8424 167.319 36.1111 167.226 35.216H159.114C159.242 36.944 159.834 38.512 160.89 39.92C160.967 40.0202 161.046 40.1189 161.127 40.216C162.158 41.4529 163.519 42.4423 165.21 43.184C167.034 43.984 169.114 44.384 171.45 44.384C173.626 44.384 175.53 44.032 177.162 43.328C178.826 42.624 180.09 41.664 180.954 40.448C181.85 39.2 182.298 37.792 182.298 36.224C182.266 34.368 181.77 32.896 180.81 31.808C180.553 31.4982 180.285 31.2129 180.003 30.952C179.268 30.2699 178.449 29.7552 177.546 29.408C176.717 29.0677 175.725 28.7274 174.57 28.3871C173.988 28.2154 173.364 28.0437 172.698 27.872C172.218 27.7654 171.773 27.6587 171.362 27.5521C171.362 27.5519 171.361 27.5518 171.361 27.5517C171.36 27.5516 171.361 27.5518 171.361 27.5517C171.298 27.5355 171.236 27.5191 171.175 27.503C170.987 27.4529 170.807 27.4027 170.634 27.3526C170.607 27.3447 170.579 27.3367 170.552 27.3287C170.516 27.3182 170.481 27.3076 170.446 27.2971C170.202 27.2241 169.975 27.151 169.763 27.0779C169.733 27.0675 169.703 27.057 169.674 27.0466C169.366 26.9377 169.094 26.8289 168.858 26.72C168.058 26.336 167.658 25.76 167.658 24.992C167.658 24.352 167.914 23.856 168.426 23.504C168.934 23.1235 169.661 22.9315 170.608 22.9281C170.617 22.928 170.626 22.928 170.634 22.928C170.649 22.928 170.664 22.9281 170.678 22.9281C171.173 22.9313 171.624 22.9881 172.03 23.0986C172.527 23.2336 172.957 23.4488 173.322 23.744C173.409 23.8109 173.491 23.8808 173.569 23.9535C173.607 23.9894 173.645 24.026 173.681 24.0633C174.169 24.5649 174.466 25.1945 174.57 25.952H182.154C181.952 24.0162 181.337 22.3495 180.311 20.952C179.879 20.3628 179.373 19.8215 178.794 19.328ZM217.124 18.512C215.908 17.776 214.516 17.408 212.948 17.408C210.42 17.408 208.372 18.288 206.804 20.048C205.236 21.808 204.452 24.16 204.452 27.104C204.452 30.048 205.236 32.4 206.804 34.16C208.372 35.92 210.42 36.8 212.948 36.8C214.516 36.8 215.908 36.432 217.124 35.696C218.372 34.96 219.332 33.888 220.004 32.48H229.028C228.994 32.609 228.959 32.737 228.922 32.864C228.888 32.9834 228.853 33.102 228.817 33.2197C228.334 34.7909 227.665 36.211 226.81 37.48C225.87 38.8762 224.705 40.0895 223.316 41.12C220.468 43.2 217.044 44.24 213.044 44.24C209.78 44.24 206.852 43.52 204.26 42.08C201.7 40.608 199.7 38.576 198.26 35.984C196.82 33.392 196.1 30.432 196.1 27.104C196.1 23.776 196.82 20.816 198.26 18.224C199.7 15.6 201.7 13.568 204.26 12.128C206.852 10.656 209.78 9.92 213.044 9.92C217.044 9.92 220.468 10.976 223.316 13.088C224.705 14.1185 225.87 15.3318 226.81 16.728C227.663 17.9947 228.331 19.4119 228.814 20.9796C228.89 21.2254 228.961 21.4748 229.028 21.728H220.004C219.332 20.32 218.372 19.248 217.124 18.512ZM228.814 26.728H216.85L215.491 23.8816C215.213 23.2993 214.908 23.0101 214.584 22.8188L214.559 22.8043L214.535 22.7895C214.179 22.574 213.7 22.408 212.948 22.408C211.729 22.408 211.081 22.763 210.537 23.374C209.974 24.0063 209.452 25.0694 209.452 27.104C209.452 29.1386 209.974 30.2017 210.537 30.834C211.081 31.445 211.729 31.8 212.948 31.8C213.7 31.8 214.179 31.634 214.535 31.4185L214.559 31.4037L214.584 31.3892C214.908 31.1979 215.213 30.9087 215.491 30.3264L216.85 27.48H228.814V26.728ZM233.814 32.864C233.814 33.1627 233.821 33.4564 233.835 33.7452C233.837 33.7764 233.839 33.8076 233.84 33.8387C233.945 35.7697 234.369 37.4768 235.11 38.96C235.974 40.688 237.19 42.016 238.758 42.944C240.326 43.84 242.134 44.288 244.182 44.288C245.285 44.288 246.322 44.1447 247.294 43.8582C247.846 43.6956 248.376 43.4869 248.886 43.232C249.737 42.797 250.482 42.2837 251.121 41.6922C251.563 41.2829 251.954 40.8362 252.294 40.352V44H260.502V17.216H252.294V31.76C252.294 33.552 251.83 34.944 250.902 35.936C250.221 36.6644 249.358 37.1254 248.315 37.3189C247.937 37.389 247.535 37.424 247.11 37.424C245.542 37.424 244.294 36.928 243.366 35.936C242.438 34.944 241.974 33.552 241.974 31.76V17.216H233.814V32.864ZM229.658 12.216H246.974V31.76C246.974 32.0745 247.002 32.2885 247.029 32.4225C247.053 32.4235 247.08 32.424 247.11 32.424C247.159 32.424 247.203 32.4227 247.24 32.4206C247.267 32.2865 247.294 32.073 247.294 31.76V12.216H261.398V3.48H279.606V12.1415C280.668 11.9316 281.757 11.832 282.862 11.832C285.963 11.832 288.889 12.6325 291.512 14.272C293.356 15.4245 294.888 16.9045 296.119 18.6487C297.547 16.7952 299.324 15.2744 301.425 14.1251C304.305 12.5502 307.503 11.832 310.88 11.832C314.191 11.832 317.33 12.5328 320.167 14.0639C323.02 15.6037 325.273 17.8338 326.852 20.6658C328.481 23.5268 329.216 26.7318 329.224 30.12H330.032L328.87 34.6874L328.536 37.576H328.086C327.412 39.5839 326.376 41.422 325 43.0647C323.336 45.0907 321.256 46.6434 318.853 47.7358C316.366 48.8662 313.68 49.384 310.88 49.384C307.523 49.384 304.344 48.661 301.473 47.0909C299.351 45.9306 297.561 44.3916 296.126 42.5139C294.904 44.2554 293.386 45.7395 291.566 46.9099L291.539 46.9271L291.512 46.944C288.889 48.5835 285.963 49.384 282.862 49.384C281.609 49.384 280.374 49.263 279.175 49H247.294V48.9975C246.278 49.1935 245.238 49.288 244.182 49.288C241.383 49.288 238.698 48.6682 236.277 47.2852L236.244 47.2663L236.212 47.2469C233.766 45.7993 231.905 43.7294 230.638 41.1961C230.592 41.1042 230.547 41.0121 230.503 40.9195C229.34 42.505 227.938 43.9172 226.294 45.1362L226.279 45.147L226.265 45.1578C222.448 47.9452 217.955 49.24 213.044 49.24C209.018 49.24 205.239 48.344 201.831 46.4508L201.799 46.4329L201.767 46.4145C198.416 44.4876 195.768 41.7951 193.889 38.4122C191.988 34.9901 191.1 31.1759 191.1 27.104C191.1 23.0362 191.986 19.2255 193.883 15.806C195.761 12.3892 198.418 9.67968 201.799 7.77549C205.212 5.83939 209.002 4.92 213.044 4.92C217.972 4.92 222.476 6.24025 226.294 9.07182C227.557 10.0088 228.678 11.0599 229.658 12.216ZM274.606 44V40.256C274.718 40.4314 274.837 40.6021 274.961 40.768C275.722 41.7826 276.708 42.62 277.918 43.28C278.447 43.5564 279.009 43.781 279.606 43.9536C280.598 44.2405 281.683 44.384 282.862 44.384C285.07 44.384 287.07 43.824 288.862 42.704C290.654 41.552 292.062 39.936 293.086 37.856C293.182 37.663 293.275 37.4673 293.362 37.2689C294.228 35.3094 294.664 33.0891 294.67 30.608C294.67 30.592 294.67 30.576 294.67 30.56C294.67 28.0579 294.233 25.8335 293.361 23.8869C293.273 23.6925 293.182 23.5009 293.086 23.312C292.062 21.232 290.654 19.632 288.862 18.512C287.07 17.392 285.07 16.832 282.862 16.832C281.694 16.832 280.609 16.984 279.606 17.288C279.015 17.4672 278.452 17.6992 277.918 17.984C276.71 18.6282 275.739 19.4412 275.004 20.4231C274.862 20.6118 274.73 20.8068 274.606 21.008V8.48H266.398V44H274.606ZM274.562 30.9232C274.618 32.8225 275.176 34.3334 276.238 35.456C276.878 36.1143 277.593 36.5896 278.382 36.8819C279.012 37.1153 279.689 37.232 280.414 37.232C282.046 37.232 283.438 36.64 284.59 35.456C285.742 34.24 286.318 32.608 286.318 30.56C286.318 28.512 285.742 26.912 284.59 25.76C283.47 24.576 282.078 23.984 280.414 23.984C279.713 23.984 279.056 24.0932 278.444 24.3117C277.63 24.6018 276.895 25.0846 276.238 25.76C275.118 26.944 274.558 28.56 274.558 30.608C274.558 30.6141 274.558 30.6201 274.558 30.6262C274.558 30.7262 274.56 30.8252 274.562 30.9232ZM279.85 29.2185C279.776 29.3039 279.558 29.6268 279.558 30.608C279.558 31.5892 279.776 31.912 279.85 31.9974C279.989 32.1348 280.074 32.1745 280.103 32.1868C280.132 32.1994 280.217 32.232 280.414 32.232C280.611 32.232 280.695 32.1994 280.725 32.1868C280.754 32.1744 280.84 32.1344 280.981 31.9949C281.082 31.8814 281.318 31.5536 281.318 30.56C281.318 29.9989 281.239 29.6762 281.182 29.5176C281.132 29.379 281.087 29.3282 281.054 29.2955L281.005 29.2464L280.958 29.196C280.834 29.0652 280.766 29.0362 280.749 29.0293C280.732 29.0217 280.641 28.984 280.414 28.984C280.217 28.984 280.132 29.0166 280.103 29.0292C280.074 29.0415 279.989 29.0811 279.85 29.2185ZM298.713 23.9296C297.806 25.8566 297.35 28.0667 297.344 30.56C297.344 30.576 297.344 30.592 297.344 30.608C297.344 33.0871 297.801 35.287 298.714 37.2079C298.827 37.4441 298.946 37.6762 299.072 37.904C300.224 39.984 301.824 41.584 303.872 42.704C305.92 43.824 308.256 44.384 310.88 44.384C313.056 44.384 315.024 43.984 316.784 43.184C318.439 42.4316 319.826 41.4103 320.943 40.12C321.014 40.0384 321.084 39.9557 321.152 39.872C321.757 39.1526 322.266 38.3873 322.679 37.576C323.074 36.7994 323.381 35.9808 323.6 35.12H314.864C314.247 36.4522 313.26 37.2709 311.901 37.576C311.498 37.6667 311.061 37.712 310.592 37.712C310.146 37.712 309.722 37.6667 309.32 37.576C308.481 37.3868 307.737 37.0001 307.088 36.416C306.244 35.6007 305.73 34.4673 305.548 33.016C305.53 32.8724 305.516 32.7258 305.504 32.576H324.08C324.176 31.744 324.224 30.944 324.224 30.176C324.224 30.1573 324.224 30.1387 324.224 30.12C324.222 29.3641 324.174 28.6348 324.08 27.9322C324.064 27.8127 324.047 27.694 324.028 27.576C323.771 25.9428 323.26 24.4575 322.496 23.12C321.376 21.104 319.808 19.552 317.792 18.464C315.776 17.376 313.472 16.832 310.88 16.832C308.224 16.832 305.872 17.392 303.824 18.512C301.776 19.632 300.176 21.232 299.024 23.312C298.915 23.5145 298.811 23.7204 298.713 23.9296ZM315.824 28.016C315.824 27.8661 315.819 27.7194 315.808 27.576C315.716 26.3727 315.242 25.3994 314.384 24.656C313.424 23.824 312.224 23.408 310.784 23.408C309.408 23.408 308.24 23.808 307.28 24.608C306.447 25.3264 305.897 26.3157 305.632 27.576C305.601 27.7192 305.575 27.8658 305.552 28.016H315.824Z" fill="#4C6E87"/>
</svg>
