<svg width="119" height="123" viewBox="0 0 119 123" fill="none" xmlns="http://www.w3.org/2000/svg">
<path d="M45.5547 94.1719C44.2717 94.1719 43.2305 95.2481 43.2305 96.5742C43.2305 97.9003 44.2717 98.9766 45.5547 98.9766C46.8377 98.9766 47.8789 97.9003 47.8789 96.5742C47.8789 95.2481 46.8377 94.1719 45.5547 94.1719Z" fill="#B74F0A"/>
<path d="M73.4453 94.1719H54.8516C53.5679 94.1719 52.5273 95.2474 52.5273 96.5742C52.5273 97.901 53.5679 98.9766 54.8516 98.9766H73.4453C74.7287 98.9766 75.7695 97.901 75.7695 96.5742C75.7695 95.2474 74.7287 94.1719 73.4453 94.1719Z" fill="#B74F0A"/>
<path d="M93.1835 105.387C93.3448 105.136 93.4947 104.876 93.6274 104.601C94.816 102.143 94.5634 99.2514 92.9688 97.0547L85.6317 86.943C86.7684 85.6229 87.3906 83.941 87.3906 82.1602C87.3906 78.1862 84.2627 74.9531 80.418 74.9531H80.209L75.9327 28.1009L84.9453 24.9957C87.7981 24.0141 89.7148 21.2658 89.7148 18.1569V2.40234C89.7148 1.07553 88.6741 0 87.3906 0H78.0938C76.8103 0 75.7695 1.07553 75.7695 2.40234V9.60938H71.1211V2.40234C71.1211 1.07553 70.0803 0 68.7969 0H50.2031C48.9195 0 47.8789 1.07553 47.8789 2.40234V9.60938H43.2305V2.40234C43.2305 1.07553 42.1899 0 40.9062 0H31.6094C30.3257 0 29.2852 1.07553 29.2852 2.40234V18.1569C29.2852 21.2658 31.2019 24.0141 34.054 24.9957L43.0673 28.1012L38.791 74.9531H38.582C36.7203 74.9531 34.9695 75.7029 33.6519 77.0645C32.3348 78.4262 31.6094 80.2359 31.6094 82.1602C31.6094 83.9931 32.276 85.6673 33.3702 86.9406L26.0317 97.0542C24.4366 99.2514 24.184 102.143 25.3726 104.601C25.5053 104.875 25.6552 105.136 25.8167 105.387C22.3369 107.464 19.9883 111.349 19.9883 115.793V120.598C19.9883 121.924 21.0288 123 22.3125 123H96.6875C97.9709 123 99.0117 121.924 99.0117 120.598V115.793C99.0117 111.349 96.6633 107.464 93.1835 105.387ZM35.5231 20.4372C34.5725 20.11 33.9336 19.1938 33.9336 18.1569V4.80469H38.582V12.0117C38.582 13.3385 39.6226 14.4141 40.9062 14.4141H50.2031C51.4868 14.4141 52.5273 13.3385 52.5273 12.0117V4.80469H66.4727V12.0117C66.4727 13.3385 67.5134 14.4141 68.7969 14.4141H78.0938C79.3772 14.4141 80.418 13.3385 80.418 12.0117V4.80469H85.0664V18.1569C85.0664 19.1935 84.4277 20.11 83.4762 20.4375L73.0681 24.0234H45.9319L35.5231 20.4372ZM75.5399 74.9531H43.4601L47.67 28.8281H71.33L75.5399 74.9531ZM36.939 80.4622C37.3786 80.0079 37.9619 79.7578 38.582 79.7578H40.9062H78.0938H80.418C81.6995 79.7578 82.7422 80.8355 82.7422 82.1602C82.7422 82.8011 82.5002 83.4043 82.061 83.8581C81.6217 84.3124 81.0381 84.5625 80.418 84.5625H38.582C37.3005 84.5625 36.2578 83.4848 36.2578 82.1602C36.2578 81.5192 36.4998 80.916 36.939 80.4622ZM29.75 99.9375L37.4199 89.3672H38.582H80.418H81.5801L89.2502 99.938C89.7897 100.681 89.8717 101.621 89.4696 102.453C89.0673 103.285 88.2901 103.781 87.3906 103.781H31.6094C30.7099 103.781 29.9327 103.285 29.5304 102.453C29.1283 101.621 29.2103 100.681 29.75 99.9375ZM94.3633 118.195H24.6367V115.793C24.6367 111.819 27.7647 108.586 31.6094 108.586H87.3906C91.2353 108.586 94.3633 111.819 94.3633 115.793V118.195Z" fill="#B74F0A"/>
</svg>
