<svg width="159" height="47" viewBox="0 0 159 47" fill="none" xmlns="http://www.w3.org/2000/svg">
<path fill-rule="evenodd" clip-rule="evenodd" d="M26.1002 15.512C24.8842 14.776 23.4922 14.408 21.9242 14.408C19.3962 14.408 17.3482 15.288 15.7802 17.048C14.2122 18.808 13.4282 21.16 13.4282 24.104C13.4282 27.048 14.2122 29.4 15.7802 31.16C17.3482 32.92 19.3962 33.8 21.9242 33.8C23.4922 33.8 24.8842 33.432 26.1002 32.696C27.3482 31.96 28.3082 30.888 28.9802 29.48H38.0042C37.5126 31.348 36.7734 33.0147 35.7868 34.48C34.8466 35.8762 33.6818 37.0895 32.2922 38.12C29.4442 40.2 26.0202 41.24 22.0202 41.24C18.7562 41.24 15.8282 40.52 13.2362 39.08C10.6762 37.608 8.67617 35.576 7.23617 32.984C5.79617 30.392 5.07617 27.432 5.07617 24.104C5.07617 20.776 5.79617 17.816 7.23617 15.224C8.67617 12.6 10.6762 10.568 13.2362 9.12798C15.8282 7.65598 18.7562 6.91998 22.0202 6.91998C26.0202 6.91998 29.4442 7.97598 32.2922 10.088C33.6818 11.1185 34.8466 12.3318 35.7868 13.728C36.7734 15.1933 37.5126 16.8599 38.0042 18.728H28.9802C28.3082 17.32 27.3482 16.248 26.1002 15.512ZM10.776 4.77511C14.1886 2.83925 17.9785 1.91998 22.0202 1.91998C26.9489 1.91998 31.4522 3.24023 35.2705 6.07179C36.2817 6.8217 37.2017 7.64473 38.0307 8.53622V0.47998H56.2387V9.23171C57.3016 9.02622 58.3899 8.92798 59.4947 8.92798C63.7964 8.92798 67.6644 10.4209 70.5783 13.6277C71.2415 14.35 71.8143 15.1205 72.3037 15.9318C73.7674 13.9496 75.6159 12.3323 77.8234 11.1251C80.7033 9.55018 83.901 8.83198 87.2784 8.83198C90.589 8.83198 93.7281 9.53282 96.5651 11.0639C98.4973 12.1066 100.154 13.4659 101.513 15.1143C102.972 12.9741 104.989 11.4259 107.313 10.378L107.329 10.3706L107.346 10.3633C109.785 9.2847 112.472 8.83198 115.273 8.83198C119.435 8.83198 123.366 9.86983 126.451 12.5359C127.242 13.2119 127.94 13.9474 128.547 14.7356C129.981 12.7902 131.894 11.3631 134.079 10.378L134.095 10.3706L134.112 10.3633C136.55 9.2847 139.238 8.83198 142.038 8.83198C146.201 8.83198 150.132 9.86999 153.218 12.5365C156.217 15.1007 157.882 18.5205 158.291 22.4316L158.869 27.952H157.332C158.101 29.5886 158.431 31.3683 158.461 33.1378L158.462 33.1809V33.224C158.462 35.8113 157.702 38.2404 156.186 40.3547C154.686 42.4617 152.617 43.9389 150.291 44.9259C147.914 45.9481 145.316 46.384 142.614 46.384C139.705 46.384 136.923 45.8844 134.366 44.7629C132.296 43.8553 130.452 42.6097 128.944 40.98C127.495 42.7581 125.614 44.0398 123.525 44.9261C121.148 45.9481 118.551 46.384 115.849 46.384C112.939 46.384 110.157 45.8844 107.6 44.7629C105.159 43.6922 103.03 42.151 101.399 40.0638M121.561 40.328C123.225 39.624 124.489 38.664 125.353 37.448C125.632 37.059 125.868 36.6546 126.06 36.2345C126.484 35.3068 126.697 34.3033 126.697 33.224C126.692 32.9702 126.679 32.7236 126.657 32.4842C126.52 30.9726 126.037 29.7472 125.209 28.808C125.138 28.7226 125.066 28.639 124.993 28.5573C124.803 28.3427 124.605 28.1409 124.402 27.952C123.666 27.2699 122.847 26.7552 121.945 26.408C121.115 26.0677 120.123 25.7274 118.969 25.3871C118.386 25.2154 117.762 25.0437 117.097 24.872C116.617 24.7653 116.171 24.6587 115.76 24.552C115.76 24.5519 115.76 24.5518 115.759 24.5517C115.759 24.5516 115.759 24.5517 115.759 24.5517C115.697 24.5355 115.634 24.5191 115.574 24.503C115.386 24.4528 115.205 24.4027 115.033 24.3526C115.005 24.3446 114.978 24.3366 114.951 24.3287C114.915 24.3181 114.879 24.3076 114.844 24.2971C114.601 24.224 114.373 24.151 114.162 24.0779C114.132 24.0675 114.102 24.057 114.072 24.0466C113.764 23.9377 113.492 23.8288 113.257 23.72C112.457 23.336 112.057 22.76 112.057 21.992C112.057 21.352 112.313 20.856 112.825 20.504C113.332 20.1234 114.059 19.9315 115.007 19.928C115.015 19.928 115.024 19.928 115.033 19.928C115.047 19.928 115.062 19.928 115.077 19.9281C115.571 19.9313 116.022 19.9881 116.428 20.0986C116.925 20.2336 117.356 20.4487 117.721 20.744C117.807 20.8109 117.889 20.8807 117.967 20.9535C118.006 20.9894 118.043 21.026 118.079 21.0633C118.568 21.5649 118.864 22.1945 118.969 22.952H126.553C126.524 22.6744 126.486 22.4024 126.44 22.136C126.374 21.7527 126.29 21.3809 126.189 21.0205C125.87 19.8838 125.377 18.8609 124.71 17.952C124.277 17.3628 123.771 16.8215 123.193 16.328C121.273 14.664 118.633 13.832 115.273 13.832C113.001 13.832 111.033 14.2 109.369 14.936C107.737 15.672 106.489 16.68 105.625 17.96C105.097 18.7516 104.736 19.6011 104.543 20.5085C104.432 21.0318 104.377 21.5742 104.377 22.136C104.377 23.8503 104.786 25.2395 105.606 26.3037C105.659 26.3718 105.713 26.4385 105.769 26.504C105.959 26.7208 106.157 26.9261 106.362 27.12C106.381 27.1373 106.399 27.1545 106.417 27.1716C106.433 27.1864 106.45 27.2012 106.466 27.216C107.236 27.92 108.107 28.4666 109.081 28.856C109.821 29.1338 110.669 29.4062 111.625 29.6733C112.32 29.8677 113.072 30.0593 113.881 30.248C114.393 30.376 114.865 30.5015 115.296 30.6243C115.44 30.6654 115.579 30.7062 115.715 30.7466C115.727 30.7504 115.74 30.7542 115.753 30.758C115.955 30.819 116.147 30.8792 116.328 30.9388C116.396 30.9608 116.462 30.9828 116.526 31.0046C117.024 31.1739 117.439 31.3376 117.769 31.496C118.569 31.848 118.969 32.408 118.969 33.176C118.969 33.816 118.681 34.344 118.105 34.76C117.62 35.1017 116.946 35.2914 116.082 35.329C116.031 35.3312 115.979 35.3329 115.926 35.3341C115.869 35.3354 115.811 35.336 115.753 35.336C115.39 35.336 115.046 35.3058 114.721 35.2456C114.04 35.1195 113.44 34.8616 112.921 34.472C112.913 34.4665 112.906 34.461 112.899 34.4555C112.879 34.4405 112.859 34.4253 112.84 34.41C112.122 33.8424 111.717 33.111 111.625 32.216H103.513C103.533 32.4946 103.566 32.7691 103.611 33.0395C103.698 33.5675 103.832 34.0797 104.011 34.576C104.087 34.7852 104.171 34.9916 104.263 35.1952C104.534 35.7946 104.876 36.3695 105.289 36.92C105.365 37.0202 105.444 37.1188 105.525 37.216C106.556 38.4529 107.917 39.4422 109.609 40.184C111.433 40.984 113.513 41.384 115.849 41.384C118.025 41.384 119.929 41.032 121.561 40.328ZM100.478 29.576C100.552 28.9384 100.597 28.3196 100.615 27.7196C100.619 27.5502 100.622 27.3824 100.622 27.216C100.622 27.2026 100.622 27.1893 100.622 27.176C100.622 27.1573 100.622 27.1386 100.622 27.12C100.62 26.364 100.572 25.6347 100.478 24.9321C100.462 24.8126 100.445 24.6939 100.427 24.576C100.292 23.7222 100.088 22.9089 99.8154 22.136C99.6951 21.7953 99.5613 21.4625 99.4141 21.1376C99.2563 20.7894 99.0831 20.4502 98.8944 20.12C97.7744 18.104 96.2064 16.552 94.1904 15.464C92.1744 14.376 89.8704 13.832 87.2784 13.832C84.6224 13.832 82.2704 14.392 80.2224 15.512C78.1744 16.632 76.5744 18.232 75.4224 20.312C75.0522 20.9996 74.7431 21.7256 74.4953 22.4902C74.2033 23.3907 73.9963 24.3447 73.8742 25.352C73.7863 26.0764 73.7424 26.8284 73.7424 27.608C73.7424 29.6485 74.0518 31.4998 74.6707 33.1621C74.8962 33.7679 75.1628 34.3485 75.4704 34.904C76.6224 36.984 78.2224 38.584 80.2704 39.704C82.3184 40.824 84.6544 41.384 87.2784 41.384C89.4544 41.384 91.4224 40.984 93.1824 40.184C94.8378 39.4316 96.2242 38.4102 97.3417 37.12C97.4123 37.0384 97.4819 36.9557 97.5504 36.872C98.0699 36.2542 98.5186 35.6025 98.8964 34.9169C98.9585 34.8042 99.0187 34.6905 99.077 34.576C99.4162 33.9095 99.6905 33.2121 99.8999 32.4836C99.9345 32.3632 99.9674 32.242 99.9984 32.12H91.2624C90.6457 33.4522 89.658 34.2708 88.2996 34.576C87.8959 34.6666 87.4595 34.712 86.9904 34.712C86.5447 34.712 86.1208 34.6666 85.7187 34.576C84.8795 34.3868 84.1354 34.0001 83.4864 33.416C82.6419 32.6006 82.1287 31.4673 81.9467 30.016C81.9287 29.8724 81.9139 29.7258 81.9024 29.576H100.478ZM92.2224 25.016C92.2224 24.866 92.217 24.7194 92.2061 24.576C92.1148 23.3727 91.6402 22.3994 90.7824 21.656C89.8224 20.824 88.6224 20.408 87.1824 20.408C85.8064 20.408 84.6384 20.808 83.6784 21.608C82.8451 22.3264 82.2956 23.3157 82.03 24.576C81.9998 24.7192 81.9733 24.8658 81.9504 25.016H92.2224ZM101.399 40.0638C99.7346 42.0899 97.6549 43.6433 95.2514 44.7358C92.7646 45.8662 90.0783 46.384 87.2784 46.384C83.9217 46.384 80.7425 45.661 77.8714 44.0908C76.7025 43.4516 75.6344 42.6975 74.6707 41.8351V46H56.5107V26.456C56.5107 26.1415 56.4832 25.9275 56.4562 25.7935C56.4316 25.7925 56.4044 25.792 56.3747 25.792C56.3449 25.792 56.3178 25.7925 56.2931 25.7934C56.2661 25.9274 56.2387 26.1415 56.2387 26.456V46H38.0307V39.6717C37.2017 40.5632 36.2817 41.3863 35.2705 42.1362L35.2558 42.147L35.2411 42.1578C31.4245 44.9452 26.9319 46.24 22.0202 46.24C17.9941 46.24 14.2158 45.344 10.808 43.4508L10.7758 43.4329L10.7438 43.4145C7.39268 41.4876 4.74476 38.7951 2.86539 35.4122C0.964199 31.9901 0.0761719 28.1758 0.0761719 24.104C0.0761719 20.0366 0.962226 16.2264 2.85905 12.8072C4.73714 9.38957 7.39409 6.67954 10.776 4.77511M43.0307 41H51.2387V26.456C51.2387 24.664 51.7027 23.272 52.6307 22.28C53.3101 21.5537 54.161 21.0933 55.1834 20.8988C55.5575 20.8276 55.9546 20.792 56.3747 20.792C57.9427 20.792 59.1907 21.288 60.1187 22.28C61.0467 23.272 61.5107 24.664 61.5107 26.456V41H69.6707V25.352C69.6707 24.2151 69.5756 23.157 69.3855 22.1775C68.9816 20.0966 68.1487 18.3707 66.8867 17C65.0307 14.952 62.5667 13.928 59.4947 13.928C58.3357 13.928 57.2504 14.0752 56.2387 14.3697C55.686 14.5305 55.1554 14.7353 54.6467 14.984C53.7654 15.4148 52.998 15.9356 52.3444 16.5462C51.9301 16.9333 51.5615 17.3566 51.2387 17.816V5.47998H43.0307V41ZM38.0307 23.728V24.48H25.8263L24.4678 27.3263C24.1898 27.9087 23.8846 28.1979 23.5602 28.3892L23.5356 28.4037L23.5112 28.4185C23.1551 28.634 22.6764 28.8 21.9242 28.8C20.7058 28.8 20.0579 28.445 19.5135 27.834C18.9502 27.2017 18.4282 26.1386 18.4282 24.104C18.4282 22.0694 18.9502 21.0063 19.5135 20.374C20.0579 19.7629 20.7058 19.408 21.9242 19.408C22.6764 19.408 23.1551 19.574 23.5112 19.7895L23.5356 19.8043L23.5602 19.8188C23.8846 20.0101 24.1898 20.2993 24.4678 20.8816L25.8263 23.728H38.0307ZM131.405 35.9329C130.92 35.0827 130.588 34.1797 130.409 33.224C130.405 33.2027 130.401 33.1815 130.397 33.1602C130.342 32.8509 130.302 32.5362 130.278 32.216H138.39C138.483 33.111 138.888 33.8424 139.606 34.41C139.625 34.4253 139.645 34.4405 139.664 34.4555C139.672 34.461 139.679 34.4665 139.686 34.472C140.206 34.8617 140.806 35.1195 141.486 35.2456C141.812 35.3058 142.156 35.336 142.518 35.336C142.577 35.336 142.635 35.3354 142.692 35.3341C142.744 35.3329 142.796 35.3312 142.848 35.329C143.712 35.2914 144.386 35.1017 144.87 34.76C145.446 34.344 145.734 33.816 145.734 33.176C145.734 32.408 145.334 31.848 144.534 31.496C144.204 31.3376 143.79 31.1739 143.292 31.0046C143.227 30.9828 143.161 30.9608 143.094 30.9388C142.912 30.8792 142.72 30.819 142.518 30.758C142.506 30.7542 142.493 30.7504 142.48 30.7466C142.345 30.7062 142.205 30.6654 142.061 30.6243C141.63 30.5015 141.158 30.376 140.646 30.248C139.837 30.0593 139.085 29.8677 138.39 29.6733C137.435 29.4062 136.587 29.1338 135.846 28.856C134.873 28.4666 134.001 27.92 133.231 27.216C132.989 26.9943 132.756 26.7569 132.534 26.504C132.264 26.1877 132.034 25.8404 131.843 25.4619C131.416 24.6192 131.185 23.6222 131.148 22.4711C131.144 22.3608 131.142 22.2491 131.142 22.136C131.142 21.657 131.183 21.192 131.264 20.741C131.442 19.7458 131.818 18.8188 132.39 17.96C133.254 16.68 134.502 15.672 136.134 14.936C137.798 14.2 139.766 13.832 142.038 13.832C145.398 13.832 148.038 14.664 149.958 16.328C150.537 16.8215 151.043 17.3628 151.475 17.952C152.501 19.3495 153.116 21.0161 153.318 22.952H145.734C145.63 22.1945 145.333 21.5649 144.845 21.0633C144.809 21.026 144.771 20.9894 144.733 20.9535C144.655 20.8807 144.573 20.8109 144.486 20.744C144.121 20.4487 143.691 20.2336 143.194 20.0986C142.788 19.9881 142.337 19.9313 141.842 19.9281C141.828 19.928 141.813 19.928 141.798 19.928C141.79 19.928 141.781 19.928 141.772 19.928C140.825 19.9315 140.098 20.1234 139.59 20.504C139.078 20.856 138.822 21.352 138.822 21.992C138.822 22.76 139.222 23.336 140.022 23.72C140.258 23.8288 140.53 23.9377 140.838 24.0466C140.867 24.057 140.897 24.0675 140.927 24.0779C141.139 24.151 141.366 24.224 141.61 24.2971C141.645 24.3076 141.68 24.3181 141.716 24.3287C141.743 24.3366 141.771 24.3446 141.798 24.3526C141.971 24.4027 142.151 24.4528 142.339 24.503C142.4 24.5191 142.462 24.5353 142.524 24.5514C142.523 24.5514 142.524 24.5515 142.524 24.5514C142.524 24.5516 142.526 24.5519 142.526 24.552C142.937 24.6587 143.382 24.7653 143.862 24.872C144.528 25.0437 145.152 25.2154 145.734 25.3871C146.889 25.7274 147.881 26.0677 148.71 26.408C149.613 26.7552 150.432 27.2699 151.167 27.952C151.449 28.2128 151.717 28.4982 151.974 28.808C152.934 29.896 153.43 31.368 153.462 33.224C153.462 34.792 153.014 36.2 152.118 37.448C151.254 38.664 149.99 39.624 148.326 40.328C146.694 41.032 144.79 41.384 142.614 41.384C140.278 41.384 138.198 40.984 136.374 40.184C134.683 39.4422 133.322 38.4529 132.291 37.216C132.21 37.1188 132.131 37.0202 132.054 36.92C131.814 36.5993 131.597 36.2702 131.405 35.9329Z" fill="#B74F0A"/>
</svg>
