<svg width="39" height="64" viewBox="0 0 39 64" fill="none" xmlns="http://www.w3.org/2000/svg">
<path d="M32.2245 13.4711L32.2246 13.4711C35.4891 14.6231 37.3483 16.5321 37.3483 19.1141C37.3483 21.7626 35.1938 23.9128 32.5417 23.9128C30.6582 23.9128 29.0198 22.8275 28.2288 21.2443L27.9525 20.6913H27.3343H18.7046H14.998L18.201 22.5552L18.2012 22.5553L18.2013 22.5554L18.2016 22.5556L18.2048 22.5575L18.2233 22.5684C18.2405 22.5787 18.2676 22.595 18.3041 22.6173C18.3769 22.6618 18.487 22.7302 18.6299 22.8222C18.9158 23.0064 19.3328 23.2849 19.8465 23.6561C20.8745 24.3991 22.2854 25.5101 23.8047 26.9749C26.6109 29.6805 29.751 33.5579 31.5613 38.5168H27.7681H26.7681V39.5168V42.5235V43.5235H27.7681H29.407C29.5931 43.5235 29.7181 43.5917 29.8075 43.692C29.9053 43.8017 29.9896 43.9873 29.9896 44.2416V44.4564C29.9896 44.821 29.8181 45.0312 29.6238 45.1154L28.5902 45.5634L29.1575 46.5365C30.7632 49.2915 29.5423 52.0228 29.1216 52.7721L28.2851 54.2617H29.9935H30.9105C31.0967 54.2617 31.2217 54.33 31.311 54.4303C31.4088 54.54 31.4931 54.7255 31.4931 54.9799V58.8456C31.4931 59.2151 31.2267 59.5122 30.8675 59.5564L29.9898 59.6646V60.5489V63H3.6408V60.5638V59.5638H2.6408C2.30031 59.5638 1.92268 59.2091 1.92268 58.8456V54.9799C1.92268 54.6781 2.27997 54.2617 2.77632 54.2617H3.90834H5.61637L4.78038 52.7723C4.33544 51.9796 3.01741 49.2676 4.60892 46.5364L5.17598 45.5633L4.14257 45.1154C3.82103 44.9761 3.64102 44.6858 3.64102 44.4564V44.2416C3.64102 43.9398 3.9983 43.5235 4.49465 43.5235H5.86249H6.86249V42.5235V39.5168V38.5168H5.86249H2.08239C2.05185 38.3627 2.01808 38.1869 1.982 37.9906C1.82717 37.1482 1.6301 35.9304 1.46396 34.4404C1.13121 31.4563 0.924935 27.402 1.42034 23.0966C2.37031 14.8407 5.86303 5.84114 15.8155 1.48389V3.65101V4.65101H16.8155V3.65101L16.8155 4.65101H16.8157H16.8158H16.8161H16.8164H16.8167H16.8172H16.8177H16.8183H16.8189H16.8196H16.8204H16.8212H16.8221H16.8231H16.8242H16.8253H16.8264H16.8277H16.829H16.8303H16.8318H16.8332H16.8348H16.8364H16.8381H16.8398H16.8416H16.8435H16.8455H16.8474H16.8495H16.8516H16.8538H16.856H16.8583H16.8607H16.8631H16.8656H16.8682H16.8708H16.8734H16.8762H16.879H16.8818H16.8847H16.8877H16.8907H16.8938H16.8969H16.9001H16.9034H16.9067H16.91H16.9135H16.9169H16.9205H16.9241H16.9277H16.9314H16.9352H16.939H16.9429H16.9468H16.9508H16.9549H16.959H16.9631H16.9673H16.9716H16.9759H16.9803H16.9847H16.9891H16.9937H16.9983H17.0029H17.0076H17.0123H17.0171H17.0219H17.0268H17.0318H17.0368H17.0418H17.0469H17.052H17.0572H17.0625H17.0678H17.0731H17.0785H17.084H17.0894H17.095H17.1006H17.1062H17.1119H17.1176H17.1234H17.1292H17.1351H17.141H17.147H17.153H17.1591H17.1652H17.1713H17.1775H17.1838H17.1901H17.1964H17.2028H17.2092H17.2157H17.2222H17.2288H17.2354H17.242H17.2487H17.2554H17.2622H17.269H17.2759H17.2828H17.2897H17.2967H17.3037H17.3108H17.3179H17.3251H17.3323H17.3395H17.3468H17.3541H17.3614H17.3688H17.3763H17.3837H17.3913H17.3988H17.4064H17.414H17.4217H17.4294H17.4371H17.4449H17.4527H17.4606H17.4685H17.4764H17.4844H17.4924H17.5004H17.5085H17.5166H17.5248H17.5329H17.5411H17.5494H17.5577H17.566H17.5744H17.5827H17.5912H17.5996H17.6081H17.6166H17.6252H17.6338H17.6424H17.6511H17.6597H17.6685H17.6772H17.686H17.6948H17.7036H17.7125H17.7214H17.7304H17.7393H17.7483H17.7573H17.7664H17.7755H17.7846H17.7937H17.8029H17.8121H17.8213H17.8306H17.8399H17.8492H17.8585H17.8679H17.8773H17.8867H17.8962H17.9056H17.9151H17.9247H17.9342H17.9438H17.9534H17.963H17.9727H17.9823H17.992H18.0018H18.0115H18.0213H18.0311H18.0409H18.0508H18.0606H18.0705H18.0804H18.0904H18.1003H18.1103H18.1203H18.1303H18.1404H18.1504H18.1605H18.1706H18.1808H18.1909H18.2011H18.2113H18.2215H18.2317H18.2419H18.2522H18.2625H18.2728H18.2831H18.2935H18.3038H18.3142H18.3246H18.335H18.3454H18.3559H18.3663H18.3768H18.3873H18.3978H18.4083H18.4189H18.4294H18.44H18.4506H18.4612H18.4718H18.4824H18.4931H18.5037H18.5144H18.5251H18.5358H18.5465H18.5572H18.5679H18.5787H18.5894H18.6002H18.611H18.6218H18.6326H18.6434H18.6543H18.6651H18.6759H18.6868H18.6977H18.7086H18.7194H18.7303H18.7413H18.7522H18.7631H18.774H18.785H18.7959H18.8069H18.8179H18.8288H18.8398H18.8508H18.8618H18.8728H18.8838H18.8948H18.9059H18.9169H18.9279H18.939H18.95H18.9611H18.9721H18.9832H18.9942H19.0053H19.0164H19.0275H19.0385H19.0496H19.0607H19.0718H19.0829H19.094H19.1051H19.1162H19.1273H19.1384H19.1495H19.1606H19.1717H19.1828H19.1939H19.205H19.2161H19.2272H19.2383H19.2494H19.2605H19.2716H19.2827H19.2938H19.3049H19.316H19.3271H19.3382H19.3493H19.3604H19.3715H19.3826H19.3936H19.4047H19.4158H19.4269H19.4379H19.449H19.46H19.4711H19.4821H19.4932H19.5042H19.5152H19.5263H19.5373H19.5483H19.5593H19.5703H19.5813H19.5923H19.6032H19.6142H19.6252H19.6361H19.6471H19.658H19.6689H19.6799H19.6908H19.7017H19.7126H19.7234H19.7343H19.7452H19.756H19.7669H19.7777H19.7885H19.7993H19.8101H19.8209H19.8317H19.8425H19.8532H19.8639H19.8747H19.8854H19.8961H19.9068H19.9174H19.9281H19.9387H19.9494H19.96H19.9706H19.9812H19.9917H20.0023H20.0128H20.0234H20.0339H20.0444H20.0549H20.0653H20.0758H20.0862H20.0966H20.107H20.1174H20.1277H20.1381H20.1484H20.1587H20.169H20.1793H20.1895H20.1997H20.2099H20.2201H20.2303H20.2404H20.2506H20.2607H20.2708H20.2808H20.2909H20.3009H20.3109H20.3209H20.3309H20.3408H20.3507H20.3606H20.3705H20.3803H20.3901H20.3999H20.4097H20.4195H20.4292H20.4389H20.4486H20.4582H20.4679H20.4775H20.4871H20.4966H20.5061H20.5156H20.5251H20.5346H20.544H20.5534H20.5628H20.5721H20.5814H20.5907H20.6H20.6092H20.6184H20.6276H20.6367H20.6458H20.6549H20.664H20.673H20.682H20.691H20.6999H20.7088H20.7177H20.7266H20.7354H20.7442H20.7529H20.7616H20.7703H20.779H20.7876H20.7962H20.8047H20.8133H20.8218H20.8302H20.8387H20.847H20.8554H20.8637H20.872H20.8803H20.8885H20.8967H20.9048H20.9129H20.921H20.9291H20.9371H20.945H20.953H20.9609H20.9687H20.9765H20.9843H20.9921H20.9998H21.0075H21.0151H21.0227H21.0302H21.0378H21.0452H21.0527H21.0601H21.0674C22.3066 4.65101 23.4541 5.22067 24.4599 6.07537C25.4648 6.92919 26.2554 8.00831 26.7512 8.86151C27.9188 10.8708 29.5259 12.5186 32.2245 13.4711Z" fill="#5B5B5B" stroke="black" stroke-width="2"/>
</svg>
