<svg width="36" height="64" viewBox="0 0 36 64" fill="none" xmlns="http://www.w3.org/2000/svg">
<path d="M31.9153 52.661L30.845 54.2256H32.7407H34.0177C34.3624 54.2256 34.6698 54.4931 34.6698 54.9495V58.8283C34.6698 59.0784 34.5867 59.2534 34.4868 59.3586C34.3944 59.4559 34.2332 59.5522 33.9459 59.5522H32.9459V60.5522V63H3.05365V60.5522V59.5522H2.05365H1.90992C1.45676 59.5522 1.11426 59.1761 1.11426 58.8283V54.9495C1.11426 54.6017 1.45676 54.2256 1.90992 54.2256H3.40282H5.29849L4.22818 52.661C3.989 52.3113 3.49484 51.4813 3.3266 50.4339C3.16449 49.4247 3.29687 48.1892 4.33648 46.906L4.33651 46.906C5.84721 45.0411 8.04784 41.4007 9.53398 37.3153C11.0086 33.2617 11.8638 28.5411 10.3823 24.6415L10.1373 23.9966H9.44748H9.02103C8.56787 23.9966 8.22537 23.6205 8.22537 23.2727V23.0572C8.22537 22.7094 8.56787 22.3333 9.02103 22.3333H9.50049H11.9886L10.1925 20.6115C8.02808 18.5364 6.68096 15.6221 6.68096 12.3906C6.68096 6.09981 11.7808 1 18.0715 1C24.3623 1 29.4621 6.09981 29.4621 12.3906C29.4621 15.6221 28.115 18.5364 25.9505 20.6115L24.1545 22.3333H26.6426H26.9065C27.2513 22.3333 27.5587 22.6009 27.5587 23.0572V23.2727C27.5587 23.7291 27.2513 23.9966 26.9065 23.9966H26.696H26.0062L25.7612 24.6415C24.2797 28.5411 25.1349 33.2617 26.6095 37.3153C28.0957 41.4007 30.2963 45.0411 31.807 46.906L31.807 46.9061C32.8467 48.1892 32.9791 49.4247 32.817 50.4339C32.6487 51.4813 32.1545 52.3113 31.9153 52.661Z" fill="white" stroke="black" stroke-width="2"/>
</svg>
