<svg width="29" height="64" viewBox="0 0 29 64" fill="none" xmlns="http://www.w3.org/2000/svg">
<path d="M25.1655 54.4202L24.1352 55.9731H25.9988H26.7229C27.0652 55.9731 27.3708 56.2386 27.371 56.6923C27.371 56.6924 27.371 56.6925 27.371 56.6925V58.6267C27.371 58.9969 27.104 59.2945 26.7441 59.3388L25.8665 59.447V60.3313V63H2.50452V60.3313V59.447L1.62685 59.3388C1.26697 59.2945 1 58.9969 1 58.6267V56.6923C1 56.347 1.34033 55.9729 1.79103 55.9729H2.53297H4.39652L3.36625 54.42C2.9318 53.7652 1.97277 51.9257 3.46066 50.103C4.48164 48.8523 5.87738 46.6472 7.00182 44.0746C8.12344 41.5084 9.01824 38.4791 8.93811 35.6012L8.91105 34.629H7.9385H7.16432C6.71362 34.629 6.37329 34.2549 6.37329 33.9096V33.6946C6.37329 33.2973 6.69546 32.9752 7.09275 32.9752V31.9752V30.9752C6.69546 30.9752 6.37329 30.653 6.37329 30.2557V30.0408C6.37329 29.6954 6.71362 29.3213 7.16432 29.3213H8.15859H9.06815L9.15412 28.4158C9.60885 23.6259 8.92887 18.8707 7.79969 16.1844C7.3571 15.1314 6.81508 14.3205 6.28424 13.7004L5.98489 13.3508H5.5246H5.015C4.5643 13.3508 4.22398 12.9767 4.22398 12.6313V12.4164C4.22398 12.071 4.5643 11.6969 5.015 11.6969H7.33626H8.18446L8.32286 10.8601C8.65519 8.85066 9.98555 7.17499 11.7909 6.36233L12.878 5.87296L12.207 4.88757C11.9353 4.4886 11.7767 4.00877 11.7767 3.48877C11.7767 2.11427 12.8908 1 14.2659 1C15.6408 1 16.7546 2.11407 16.7546 3.48899C16.7546 4.01048 16.5948 4.4919 16.3212 4.89195L15.6483 5.87587L16.7342 6.36747C18.5338 7.18217 19.8593 8.85529 20.1911 10.8604L20.3295 11.6972H21.1776H23.284C23.6263 11.6972 23.9319 11.9627 23.9319 12.4166V12.6315C23.9319 13.0854 23.6263 13.351 23.284 13.351H22.9893H22.529L22.2297 13.7006C21.6988 14.3207 21.1568 15.1317 20.7142 16.1846C19.585 18.8709 18.9051 23.6262 19.3598 28.4161L19.4458 29.3216H20.3553H21.3496C21.6919 29.3216 21.9975 29.5871 21.9975 30.041V30.2559C21.9975 30.6532 21.6753 30.9754 21.278 30.9754V31.9754V32.9754C21.6753 32.9754 21.9975 33.2976 21.9975 33.6948V33.9098C21.9975 34.3637 21.6919 34.6292 21.3496 34.6292H20.5933H19.6207L19.5936 35.6014C19.5136 38.4794 20.4085 41.5086 21.5302 44.0748C22.6546 46.6475 24.0503 48.8525 25.071 50.1031L25.0711 50.1032C26.5592 51.9261 25.6 53.7654 25.1655 54.4202Z" fill="#5B5B5B" stroke="black" stroke-width="2"/>
</svg>
