<svg width="33" height="64" viewBox="0 0 33 64" fill="none" xmlns="http://www.w3.org/2000/svg">
<path d="M29.9243 52.4813L29.2272 53.8035L30.7153 53.9434C31.0508 53.9749 31.3288 54.2561 31.3288 54.6577V58.5235C31.3288 58.7586 31.2402 58.9819 31.1059 59.1367C30.9773 59.285 30.83 59.349 30.6822 59.349H30.3959H29.3959V60.349V63H3.0469V60.349V59.349H2.0469H1.90365C1.5323 59.349 1.11401 58.9456 1.11401 58.5235V54.6577C1.11401 54.3325 1.38578 54.009 1.79898 53.9702L3.28756 53.8307L2.5902 52.5082C1.90647 51.2115 0.768395 48.1658 2.93218 45.1219L2.9322 45.1219C4.61784 42.7504 6.55899 38.1895 7.71427 33.1174C8.8695 28.0457 9.28323 22.2739 7.73489 17.516L7.51016 16.8255H6.78397H4.76502V1H6.41603V3.65101V4.65101H7.41603H10.8523H11.8523V3.65101V1H13.5033V3.65101V4.65101H14.5033H17.9395H18.9395V3.65101V1H20.8053V3.65101V4.65101H21.8053H25.2415H26.2415V3.65101V1H27.6778V16.8255H25.8021H25.0759L24.8512 17.516C23.303 22.2734 23.712 28.0448 24.8627 33.1166C26.0135 38.1885 27.9501 42.7499 29.636 45.1218L29.636 45.1219C31.7935 48.1571 30.6164 51.1688 29.9243 52.4813Z" fill="white" stroke="black" stroke-width="2"/>
</svg>
