<svg width="147" height="50" viewBox="0 0 147 50" fill="none" xmlns="http://www.w3.org/2000/svg">
<path fill-rule="evenodd" clip-rule="evenodd" d="M36.2705 5.304V15.0931C36.7712 14.746 37.2941 14.4231 37.8389 14.1251C40.7188 12.5502 43.9165 11.832 47.2939 11.832C50.6045 11.832 53.7436 12.5328 56.5806 14.0639C57.0716 14.3289 57.5449 14.6144 58 14.9198V12.216H61.264V5.688H79.472V12.216H97.676V12.3176C98.2539 12.1808 98.8413 12.0803 99.4368 12.0157C99.3005 11.3698 99.2313 10.7014 99.2313 10.016C99.2313 7.41907 100.206 5.01092 102.173 3.18404C104.152 1.34357 106.61 0.552002 109.127 0.552002C111.618 0.552002 114.047 1.34791 115.988 3.18599C117.962 4.98852 118.975 7.3886 118.975 10.016C118.975 11.3444 118.711 12.6012 118.207 13.7499V15.4051C119.206 14.5887 120.321 13.9172 121.516 13.3781L121.532 13.3706L121.549 13.3633C123.988 12.2847 126.675 11.832 129.476 11.832C133.638 11.832 137.57 12.87 140.655 15.5366C143.655 18.1007 145.319 21.5205 145.728 25.4316L146.306 30.952H144.769C145.538 32.5886 145.868 34.3684 145.899 36.1378L145.9 36.1809V36.224C145.9 38.8111 145.139 41.24 143.624 43.3541C142.124 45.4614 140.055 46.9388 137.728 47.9259C135.351 48.9481 132.754 49.384 130.052 49.384C127.142 49.384 124.36 48.8844 121.803 47.7629C120.507 47.1945 119.299 46.4936 118.207 45.6487V49H99.9993V30.616H98.82C98.3147 30.616 97.9604 30.6584 97.7274 30.7049C97.6995 30.905 97.676 31.1873 97.676 31.568V49H75.72C71.9685 49 68.3382 48.0872 65.4882 45.6208L65.4676 45.603L65.4472 45.585C64.1388 44.4276 63.1978 43.0549 62.5438 41.5586C62.1974 42.0771 61.8207 42.5792 61.4144 43.0642C59.7497 45.0905 57.6704 46.6433 55.2669 47.7358C52.7801 48.8662 50.0938 49.384 47.2939 49.384C43.9372 49.384 40.758 48.661 37.8869 47.0909C34.9916 45.5075 32.7139 43.2188 31.112 40.3265C29.4842 37.3874 28.7579 34.094 28.7579 30.608C28.7579 27.5099 29.3186 24.5632 30.5654 21.88H27.3425V49H9.13454V21.88H0.206543V5.304H36.2705ZM22.3425 16.88H31.2705V10.304H5.20654V16.88H14.1345V44H22.3425V16.88ZM66.264 34.688C66.264 37.984 67.096 40.368 68.76 41.84C70.2672 43.1443 72.3125 43.8579 74.896 43.9808C75.1649 43.9936 75.4396 44 75.72 44H79.896V37.04H76.968C76.072 37.04 75.432 36.864 75.048 36.512C74.664 36.16 74.472 35.584 74.472 34.784V24.032H79.848V17.216H74.472V10.688H66.264V17.216H63V24.032H66.264V34.688ZM60.6378 30.12C60.6367 29.751 60.6247 29.3883 60.6018 29.032C60.5779 28.6584 60.5419 28.2918 60.4939 27.9321C60.478 27.8127 60.4607 27.6939 60.4422 27.576C60.242 26.3051 59.8883 25.1238 59.3812 24.032C59.2366 23.7207 59.0795 23.4167 58.9099 23.12C58.6338 22.6231 58.3306 22.1543 58 21.7138C56.9897 20.3671 55.725 19.2838 54.2059 18.464C52.1899 17.376 49.8859 16.832 47.2939 16.832C44.6379 16.832 42.2859 17.392 40.2379 18.512C38.1899 19.632 36.5899 21.232 35.4379 23.312C34.3179 25.392 33.7579 27.824 33.7579 30.608C33.7579 33.392 34.3339 35.824 35.4859 37.904C36.6379 39.984 38.2379 41.584 40.2859 42.704C42.3339 43.824 44.6699 44.384 47.2939 44.384C49.4699 44.384 51.4379 43.984 53.1979 43.184C54.8532 42.4316 56.2397 41.4103 57.3572 40.12C57.4278 40.0384 57.4974 39.9557 57.5659 39.872C58.1709 39.1526 58.6797 38.3873 59.0925 37.576C59.4877 36.7994 59.7948 35.9808 60.0139 35.12H51.2779C50.6612 36.4522 49.6735 37.2709 48.3151 37.576C47.9114 37.6667 47.475 37.712 47.0059 37.712C46.5602 37.712 46.1363 37.6667 45.7342 37.576C44.895 37.3868 44.1509 37.0001 43.5019 36.416C42.6574 35.6007 42.1442 34.4673 41.9622 33.016C41.9442 32.8724 41.9294 32.7258 41.9179 32.576H60.4939C60.5899 31.744 60.6379 30.944 60.6379 30.176C60.6379 30.1573 60.6379 30.1387 60.6378 30.12ZM52.2379 28.016C52.2379 27.8661 52.2325 27.7194 52.2216 27.576C52.1303 26.3727 51.6557 25.3994 50.7979 24.656C49.8379 23.824 48.6379 23.408 47.1979 23.408C45.8219 23.408 44.6539 23.808 43.6939 24.608C42.8606 25.3264 42.3111 26.3157 42.0455 27.576C42.0153 27.7192 41.9888 27.8658 41.9659 28.016H52.2379ZM84.468 44H92.676V31.568C92.676 31.3018 92.6835 31.0454 92.6984 30.7988C92.8069 28.9994 93.3115 27.7199 94.212 26.96C94.6453 26.5809 95.1702 26.282 95.7867 26.0633C96.6274 25.7651 97.6385 25.616 98.82 25.616H101.076V16.928C100.71 16.928 100.351 16.9467 99.9993 16.984C99.1882 17.07 98.4137 17.2551 97.676 17.5394C97.1937 17.7252 96.727 17.9534 96.276 18.224C96.2089 18.2628 96.1422 18.3023 96.076 18.3426C94.7246 19.1642 93.5912 20.2767 92.676 21.68V17.216H84.468V44ZM104.999 44H113.207V17.216H104.999V44ZM106.076 13.5758C106.918 14.1466 107.935 14.432 109.127 14.432C110.535 14.432 111.687 14.016 112.583 13.184C112.822 12.9618 113.03 12.7268 113.207 12.4792C113.269 12.393 113.327 12.3053 113.381 12.216C113.777 11.5646 113.975 10.8313 113.975 10.016C113.975 8.736 113.511 7.68 112.583 6.848C111.687 5.984 110.535 5.552 109.127 5.552C107.687 5.552 106.503 5.984 105.575 6.848C104.679 7.68 104.231 8.736 104.231 10.016C104.231 10.7133 104.371 11.3506 104.651 11.928C104.698 12.0257 104.749 12.1217 104.805 12.216C104.865 12.3184 104.93 12.4187 104.999 12.5171C105.165 12.7508 105.357 12.9731 105.575 13.184C105.735 13.3269 105.902 13.4575 106.076 13.5758ZM119.728 40.216C120.759 41.4529 122.12 42.4423 123.812 43.184C125.636 43.984 127.716 44.384 130.052 44.384C132.228 44.384 134.132 44.032 135.764 43.328C137.428 42.624 138.692 41.664 139.556 40.448C140.452 39.2 140.9 37.792 140.9 36.224C140.868 34.368 140.372 32.896 139.412 31.808C139.155 31.4982 138.886 31.2129 138.605 30.952C137.869 30.2699 137.05 29.7552 136.148 29.408C135.318 29.0677 134.326 28.7274 133.172 28.3871C132.589 28.2154 131.965 28.0437 131.3 27.872C130.82 27.7654 130.374 27.6587 129.963 27.5521C129.963 27.5519 129.963 27.5518 129.962 27.5517C129.962 27.5516 129.962 27.5518 129.962 27.5517C129.9 27.5355 129.837 27.5191 129.777 27.503C129.589 27.4529 129.408 27.4027 129.236 27.3526C129.208 27.3446 129.181 27.3367 129.154 27.3287C129.118 27.3182 129.082 27.3076 129.047 27.2971C128.804 27.2241 128.576 27.151 128.365 27.0779C128.335 27.0675 128.305 27.057 128.275 27.0466C127.967 26.9377 127.695 26.8289 127.46 26.72C126.66 26.336 126.26 25.76 126.26 24.992C126.26 24.352 126.516 23.856 127.028 23.504C127.535 23.1235 128.262 22.9315 129.21 22.9281C129.218 22.928 129.227 22.928 129.236 22.928C129.25 22.928 129.265 22.9281 129.28 22.9281C129.774 22.9313 130.225 22.9881 130.631 23.0986C131.128 23.2336 131.559 23.4487 131.924 23.744C132.01 23.8109 132.092 23.8808 132.17 23.9535C132.209 23.9894 132.246 24.026 132.282 24.0633C132.771 24.5649 133.067 25.1945 133.172 25.952H140.756C140.553 24.0162 139.939 22.3495 138.913 20.952C138.48 20.3628 137.974 19.8215 137.396 19.328C135.476 17.664 132.836 16.832 129.476 16.832C127.204 16.832 125.236 17.2 123.572 17.936C121.94 18.672 120.692 19.68 119.828 20.96C118.996 22.208 118.58 23.6 118.58 25.136C118.58 26.96 119.044 28.416 119.972 29.504C120.194 29.7569 120.426 29.9943 120.669 30.216C121.439 30.92 122.31 31.4666 123.284 31.856C124.024 32.1338 124.872 32.4063 125.828 32.6733C126.523 32.8677 127.275 33.0593 128.084 33.248C128.596 33.3761 129.067 33.5015 129.499 33.6243C129.643 33.6654 129.782 33.7062 129.918 33.7467C129.93 33.7505 129.943 33.7543 129.956 33.7581C130.158 33.819 130.35 33.8792 130.531 33.9388C130.599 33.9609 130.665 33.9828 130.729 34.0047C131.227 34.1739 131.642 34.3377 131.972 34.496C132.772 34.848 133.172 35.408 133.172 36.176C133.172 36.816 132.884 37.344 132.308 37.76C131.823 38.1017 131.149 38.2914 130.285 38.329C130.234 38.3313 130.182 38.333 130.129 38.3341C130.072 38.3354 130.014 38.336 129.956 38.336C129.593 38.336 129.249 38.3059 128.924 38.2456C128.243 38.1195 127.643 37.8617 127.124 37.472C127.116 37.4665 127.109 37.4611 127.102 37.4556C127.082 37.4405 127.062 37.4253 127.043 37.41C126.325 36.8424 125.92 36.1111 125.828 35.216H117.716C117.776 36.032 117.94 36.8123 118.207 37.557C118.506 38.3892 118.934 39.1769 119.492 39.92C119.568 40.0202 119.647 40.1189 119.728 40.216Z" fill="#C79B00"/>
</svg>
