<svg width="135" height="135" viewBox="0 0 135 135" fill="none" xmlns="http://www.w3.org/2000/svg">
<path d="M89.237 65.2117H45.7628C44.4998 65.2117 43.4749 66.2367 43.4749 67.4996V110.974C43.4749 112.237 44.4998 113.262 45.7628 113.262H89.237C90.5 113.262 91.5249 112.237 91.5249 110.974V67.4996C91.5249 66.2367 90.5 65.2117 89.237 65.2117ZM86.9491 108.686H48.0507V69.7875H86.9491V108.686Z" fill="#C79B00"/>
<path d="M89.237 21.7375H45.7628C44.4998 21.7375 43.4749 22.7625 43.4749 24.0254V67.4997C43.4749 68.7626 44.4998 69.7876 45.7628 69.7876H89.237C90.5 69.7876 91.5249 68.7626 91.5249 67.4997V24.0254C91.5249 22.7625 90.5 21.7375 89.237 21.7375ZM86.9491 65.2118H48.0507V26.3133H86.9491V65.2118Z" fill="#C79B00"/>
<path d="M45.7629 65.2117H2.28791C1.02497 65.2117 0 66.2367 0 67.4996V110.974C0 112.237 1.02497 113.262 2.28791 113.262H45.7622C47.0251 113.262 48.0501 112.237 48.0501 110.974V67.4996C48.0508 66.2367 47.0258 65.2117 45.7629 65.2117ZM43.4743 108.686H4.57649V69.7875H43.475V108.686H43.4743Z" fill="#C79B00"/>
<path d="M132.711 65.2117H89.2371C87.9742 65.2117 86.9492 66.2367 86.9492 67.4996V110.974C86.9492 112.237 87.9742 113.262 89.2371 113.262H132.711C133.974 113.262 134.999 112.237 134.999 110.974V67.4996C135 66.2367 133.975 65.2117 132.711 65.2117ZM130.423 108.686H91.525V69.7875H130.423V108.686Z" fill="#C79B00"/>
</svg>
